<svg width="30" height="35" viewBox="0 0 30 35" fill="none" xmlns="http://www.w3.org/2000/svg">
<path d="M27.4359 34.9185H24.9418V31.1772C24.9398 29.5241 24.2822 27.9392 23.1133 26.7703C21.9443 25.6014 20.3595 24.9438 18.7063 24.9418H11.2238C9.57064 24.9438 7.98578 25.6014 6.81684 26.7703C5.64789 27.9392 4.99031 29.5241 4.98833 31.1772V34.9185H2.49415V31.1772C2.49679 28.8628 3.41737 26.6439 5.05392 25.0074C6.69047 23.3708 8.90935 22.4503 11.2238 22.4476H18.7063C21.0207 22.4503 23.2396 23.3708 24.8762 25.0074C26.5127 26.6439 27.4333 28.8628 27.4359 31.1772V34.9185Z" fill="#5285F2"/>
<path d="M1.24709 4.98837C0.916341 4.98837 0.599139 5.11976 0.365264 5.35364C0.13139 5.58751 0 5.90472 0 6.23546V17.4593H2.49418V6.23546C2.49418 5.90472 2.36279 5.58751 2.12891 5.35364C1.89504 5.11976 1.57784 4.98837 1.24709 4.98837Z" fill="#5285F2"/>
<path d="M0 0V2.49418H6.23545V11.2238C6.23545 13.539 7.15517 15.7595 8.79229 17.3966C10.4294 19.0337 12.6498 19.9534 14.9651 19.9534C17.2803 19.9534 19.5007 19.0337 21.1378 17.3966C22.775 15.7595 23.6947 13.539 23.6947 11.2238V2.49418H29.9301V0H0ZM8.72962 2.49418H21.2005V6.23545H8.72962V2.49418ZM14.9651 17.4593C13.3113 17.4593 11.7253 16.8023 10.5559 15.6329C9.38657 14.4636 8.72962 12.8775 8.72962 11.2238V8.72963H21.2005V11.2238C21.2005 12.8775 20.5436 14.4636 19.3742 15.6329C18.2048 16.8023 16.6188 17.4593 14.9651 17.4593Z" fill="#5285F2"/>
</svg>
